PathFileType	4	(X/Y/Z)	C:\Users\WrightLab\Desktop\Jo\P2_Trial28.trc
DataRate	CameraRate	NumFrames	NumMarkers	Units	OrigDataRate	OrigDataStartFrame	OrigNumFrames
100.00	100.00	       21	19	mm	100.00	1	       472
Frame#	Time	Headset_Front			Headset_Back			Headset_Left			Headset_Right			Left_Shoulder			Right_Shoulder			Sternum			C7			Left Elbow			Right Elbow			Left Wrist			Right Wrist			Left ASIS			Right ASIS			S2			Left Knee			Right Knee			Left Ankle			Right Ankle			
		X1	Y1	Z1	X2	Y2	Z2	X3	Y3	Z3	X4	Y4	Z4	X5	Y5	Z5	X6	Y6	Z6	X7	Y7	Z7	X8	Y8	Z8	X9	Y9	Z9	X10	Y10	Z10	X11	Y11	Z11	X12	Y12	Z12	X13	Y13	Z13	X14	Y14	Z14	X15	Y15	Z15	X16	Y16	Z16	X17	Y17	Z17	X18	Y18	Z18	X19	Y19	Z19	

1	0.000																									67.76675	1084.54602	-1524.65356							-504.37341	858.96637	-1518.92676										-13.31965	410.78757	-1512.91040	-379.28619	74.91977	-1487.86328							
2	0.010																									67.52399	1084.05664	-1525.97778							-506.22992	858.87573	-1521.34753										-13.79867	410.73254	-1513.72620	-381.15427	78.03980	-1483.43323							
3	0.020																									65.25296	1084.14893	-1522.34399							-508.62561	859.35754	-1524.10132										-14.30701	410.70798	-1514.51379	-383.03940	78.41431	-1482.93689							
4	0.030																									64.03824	1083.97705	-1521.46960							-511.55283	860.06171	-1526.58948										-14.90275	410.81332	-1515.12256	-384.62296	77.99920	-1484.06067							
5	0.040																									62.90057	1083.72205	-1521.19568							-513.30493	860.66553	-1529.91187										-16.25589	410.77142	-1515.41687	-388.29224	80.38613	-1476.90259							
6	0.050																									61.53395	1083.38464	-1519.75549							-515.25128	861.81635	-1533.91931										-18.38912	410.31522	-1514.60071	-391.91013	83.82433	-1474.38232							
7	0.060																									59.55560	1083.20032	-1515.96533							-517.75159	861.19916	-1533.11145										-20.30339	411.06277	-1514.70105	-398.01907	85.77343	-1471.43811							
8	0.070																									58.04871	1083.34814	-1514.56873							-520.50049	862.24829	-1537.58496										-20.91017	411.03906	-1515.63623	-404.36301	87.17956	-1469.75745							
9	0.080																									56.14466	1083.52161	-1512.12866							-522.91998	862.34766	-1539.23584										-22.84984	410.25650	-1514.44873	-412.76657	87.38300	-1465.18762							
10	0.090																									54.53912	1084.18030	-1510.32336							-525.91998	861.93414	-1539.48389										-24.14737	410.76892	-1514.70996	-420.84113	86.22483	-1465.63452							
11	0.100																									51.65613	1084.06592	-1506.28369							-527.88812	862.30438	-1541.69458										-25.39886	412.06384	-1515.23560	-430.44049	86.49990	-1460.81848							
12	0.110																									50.13492	1083.92676	-1504.49194							-530.79773	862.32147	-1542.69580										-27.82839	411.11957	-1514.25464	-439.27786	86.34106	-1458.71851							
13	0.120																									47.10848	1084.62000	-1500.80896							-533.44812	861.87671	-1543.02234										-29.10433	410.92239	-1514.27625	-448.66733	86.62396	-1456.10193							
14	0.130																									45.46961	1084.29199	-1499.82642							-535.35376	862.08972	-1544.59338										-32.01949	410.31076	-1512.00354	-456.36301	87.39404	-1453.81641							
15	0.140																									42.57862	1084.66406	-1494.34753							-538.30389	861.94476	-1545.29443										-33.66723	410.37265	-1511.60120	-466.18723	89.24802	-1443.80750							
16	0.150																									39.75911	1085.51624	-1490.80420							-540.99677	861.36462	-1545.53687										-34.71393	409.97186	-1510.69360	-474.97137	88.79861	-1441.39844							
17	0.160																									37.37814	1085.46680	-1487.90747							-543.22375	860.09503	-1544.92383										-37.35788	410.12286	-1510.24316	-483.96021	88.00072	-1440.75879							
18	0.170																									33.39551	1085.66516	-1482.02881							-547.01074	858.71637	-1542.96765										-39.55556	410.00610	-1508.74292	-494.00848	89.94391	-1433.69763							
19	0.180																									29.68674	1086.22644	-1477.37292							-549.35199	858.55231	-1543.94458										-40.95168	409.19119	-1508.42310	-501.69952	87.08486	-1436.14258							
20	0.190																									26.63775	1086.50671	-1474.41455							-552.18872	857.67249	-1543.66992										-42.53107	409.57291	-1507.50757	-510.77194	88.84797	-1431.29773							
21	0.200																									23.35103	1087.41504	-1469.20862							-554.95996	857.09277	-1543.72681										-45.63035	410.01782	-1506.40405	-519.53168	90.08665	-1422.52429							
